# xmcd
#
# Track frame offsets: 
#        150
#        10461
#        20105
#        32172
#        45504
#        55285
#        70083
#        80155
#        103467
#        116438
#
# Disc length: 1785 seconds
#
# Revision: 3
# Processed by: cddbd v1.5.2PL0 Copyright (c) Steve Scherf et al.
# Submitted via: ExactAudioCopy v1.1
#
DISCID=8a06f70a
DTITLE=Dave Dudley - Ferlin Husky - Dave Dudley - Ferlin Husky Back To
DTITLE=Back
DYEAR=2003
DGENRE=Country
TTITLE0=Dave Dudley - Six Days On The Road
TTITLE1=Dave Dudley - Truck Drivin' Son-Of-A-Gun
TTITLE2=Dave Dudley - Mad
TTITLE3=Dave Dudley - The Pool Shark
TTITLE4=Dave Dudley - Cowboy Boots
TTITLE5=Ferlin Husky - I'm A Truck
TTITLE6=Ferlin Husky - Looking At The World Through A Windshield
TTITLE7=Ferlin Husky - Teddy Bear
TTITLE8=Ferlin Husky - Me And Ole C.B.
TTITLE9=Ferlin Husky - Convoy
EXTD=
EXTT0=
EXTT1=
EXTT2=
EXTT3=
EXTT4=
EXTT5=
EXTT6=
EXTT7=
EXTT8=
EXTT9=
PLAYORDER=
